<?xml version="1.0" standalone="no"?>
<!DOCTYPE svg PUBLIC "-//W3C//DTD SVG 20010904//EN"
 "http://www.w3.org/TR/2001/REC-SVG-20010904/DTD/svg10.dtd">
<svg version="1.0" xmlns="http://www.w3.org/2000/svg"
 width="150.000000pt" height="150.000000pt" viewBox="0 0 150.000000 150.000000"
 preserveAspectRatio="xMidYMid meet">
<metadata>
Created by potrace 1.11, written by Peter Selinger 2001-2013
</metadata>
<g transform="translate(0.000000,150.000000) scale(0.100000,-0.100000)"
fill="#000000" stroke="none">
<path d="M704 1440 c-76 -44 -427 -247 -496 -287 l-78 -44 0 -352 c0 -194 4
-357 8 -363 7 -10 81 -56 182 -112 25 -13 50 -28 55 -32 6 -4 30 -19 55 -33
25 -13 104 -59 176 -101 72 -42 139 -76 148 -76 9 0 33 11 54 24 32 20 305
179 402 233 91 52 146 86 152 97 4 6 8 169 8 362 l0 352 -122 70 c-68 38 -206
117 -306 176 -101 58 -189 106 -195 105 -7 0 -26 -9 -43 -19z"/>
</g>
</svg>
