<?xml version="1.0" standalone="no"?>
<!DOCTYPE svg PUBLIC "-//W3C//DTD SVG 20010904//EN"
 "http://www.w3.org/TR/2001/REC-SVG-20010904/DTD/svg10.dtd">
<svg version="1.0" xmlns="http://www.w3.org/2000/svg"
 width="150.000000pt" height="150.000000pt" viewBox="0 0 150.000000 150.000000"
 preserveAspectRatio="xMidYMid meet">
<metadata>
Created by potrace 1.11, written by Peter Selinger 2001-2013
</metadata>
<g transform="translate(0.000000,150.000000) scale(0.100000,-0.100000)"
fill="#000000" stroke="none">
<path d="M280 1030 c0 -143 3 -260 6 -260 5 0 58 28 145 78 20 11 47 26 60 34
13 7 31 18 39 24 8 6 40 25 70 41 147 80 147 80 93 110 -125 67 -160 87 -173
97 -8 6 -26 17 -39 24 -13 8 -39 22 -57 33 -19 10 -51 28 -71 40 -21 11 -42
25 -47 30 -6 5 -14 9 -18 9 -4 0 -8 -117 -8 -260z"/>
<path d="M748 760 l-3 -260 -25 14 c-82 44 -147 80 -160 90 -8 6 -26 17 -39
24 -13 8 -39 22 -57 33 -19 10 -51 28 -71 40 -21 12 -53 30 -71 41 -18 11 -35
18 -38 16 -2 -3 -3 -130 -2 -282 l3 -278 25 19 c14 11 50 33 80 50 87 48 134
75 145 83 6 4 30 19 55 32 91 50 125 70 135 78 6 4 30 19 55 32 91 50 125 70
135 78 6 4 30 19 55 32 83 46 118 67 159 92 22 15 44 26 48 26 5 0 16 7 26 14
16 13 13 16 -35 46 -29 18 -68 41 -85 52 -18 10 -50 28 -70 39 -21 12 -63 36
-93 52 -30 17 -79 45 -108 64 -29 18 -54 33 -57 33 -3 0 -6 -117 -7 -260z"/>
</g>
</svg>
